<?xml version="1.0" encoding="utf-8"?>
<!-- Generator: Adobe Illustrator 18.1.0, SVG Export Plug-In . SVG Version: 6.00 Build 0)  -->
<!DOCTYPE svg PUBLIC "-//W3C//DTD SVG 1.1//EN" "http://www.w3.org/Graphics/SVG/1.1/DTD/svg11.dtd">
<svg version="1.1" id="Layer_1" xmlns="http://www.w3.org/2000/svg" xmlns:xlink="http://www.w3.org/1999/xlink" x="0px" y="0px"
	 width="44px" height="44px" viewBox="0 0 44 44" enable-background="new 0 0 44 44" xml:space="preserve">
<g>
	<circle fill="#1A9FDA" cx="22" cy="22" r="20"/>
	<path fill="#FFFFFF" d="M33,15.8c-0.7,0.3-1.5,0.5-2.4,0.6c0.8-0.5,1.5-1.3,1.8-2.3c-0.8,0.5-1.7,0.8-2.6,1c-0.7-0.8-1.8-1.3-3-1.3
		c-2.3,0-4.1,1.8-4.1,4.1c0,0.3,0,0.6,0.1,0.9c-3.4-0.2-6.4-1.8-8.5-4.3c-0.4,0.6-0.6,1.3-0.6,2.1c0,1.4,0.7,2.7,1.8,3.4
		c-0.7,0-1.3-0.2-1.9-0.5c0,0,0,0,0,0.1c0,2,1.4,3.6,3.3,4c-0.3,0.1-0.7,0.1-1.1,0.1c-0.3,0-0.5,0-0.8-0.1c0.5,1.6,2,2.8,3.8,2.8
		c-1.4,1.1-3.2,1.8-5.1,1.8c-0.3,0-0.7,0-1-0.1c1.8,1.2,4,1.8,6.3,1.8c7.5,0,11.7-6.3,11.7-11.7c0-0.2,0-0.4,0-0.5
		C31.8,17.3,32.5,16.6,33,15.8z"/>
</g>
<g>
	<circle fill="#3B5A8D" cx="-101" cy="115" r="20"/>
	<path id="f_1_" fill="#FFFFFF" d="M-99.5,125v-9.1h3.1l0.5-3.6h-3.5v-2.3c0-1,0.3-1.7,1.8-1.7l1.9,0v-3.2c-0.3,0-1.4-0.1-2.7-0.1
		c-2.7,0-4.6,1.7-4.6,4.7v2.6h-3.1v3.6h3.1v9.1H-99.5z"/>
</g>
<g>
	<circle fill="#047BAA" cx="-152" cy="119" r="20"/>
	<g>
		<path fill="#FFFFFF" d="M-161.7,115.6h4.1V129h-4.1V115.6z M-159.6,109c1.3,0,2.4,1.1,2.4,2.4c0,1.3-1.1,2.4-2.4,2.4
			c-1.3,0-2.4-1.1-2.4-2.4C-162,110.1-160.9,109-159.6,109"/>
		<path fill="#FFFFFF" d="M-154.9,115.6h4v1.8h0.1c0.6-1,1.9-2.2,3.9-2.2c4.2,0,5,2.8,5,6.4v7.3h-4.1v-6.5c0-1.5,0-3.5-2.2-3.5
			c-2.2,0-2.5,1.7-2.5,3.4v6.6h-4.1V115.6z"/>
	</g>
</g>
</svg>
